<mxfile host="app.diagrams.net" modified="2020-08-06T06:52:54.633Z" agent="5.0 (X11; Linux x86_64) AppleWebKit/537.36 (KHTML, like Gecko) Chrome/84.0.4147.105 Safari/537.36" etag="ep-xpDFiOa83YAw9j3Ya" version="13.6.0" type="github">
  <diagram id="V6NNLClsR3c-oarDAFeP" name="第 1 页">
    <mxGraphModel dx="2040" dy="1790" grid="1" gridSize="10" guides="1" tooltips="1" connect="1" arrows="1" fold="1" page="1" pageScale="1" pageWidth="827" pageHeight="1169" math="0" shadow="0">
      <root>
        <mxCell id="0" />
        <mxCell id="1" parent="0" />
        <mxCell id="_4d6rBHp9_qb33C90rfb-1" value="" style="pointerEvents=1;shadow=0;dashed=0;html=1;strokeColor=none;fillColor=#4495D1;labelPosition=center;verticalLabelPosition=bottom;verticalAlign=top;align=center;outlineConnect=0;shape=mxgraph.veeam.cpu;" vertex="1" parent="1">
          <mxGeometry x="790" y="7" width="90" height="80" as="geometry" />
        </mxCell>
        <mxCell id="_4d6rBHp9_qb33C90rfb-3" value="" style="pointerEvents=1;shadow=0;dashed=0;html=1;strokeColor=none;fillColor=#434445;aspect=fixed;labelPosition=center;verticalLabelPosition=bottom;verticalAlign=top;align=center;outlineConnect=0;shape=mxgraph.vvd.memory;" vertex="1" parent="1">
          <mxGeometry x="450" y="22" width="131.58" height="50" as="geometry" />
        </mxCell>
        <mxCell id="_4d6rBHp9_qb33C90rfb-4" value="" style="shape=doubleArrow;whiteSpace=wrap;html=1;arrowWidth=0.7;arrowSize=0.03307086614173228;" vertex="1" parent="1">
          <mxGeometry x="-120" y="380" width="1670" height="20" as="geometry" />
        </mxCell>
        <mxCell id="_4d6rBHp9_qb33C90rfb-5" value="I/O总线" style="text;html=1;strokeColor=none;fillColor=none;align=center;verticalAlign=middle;whiteSpace=wrap;rounded=0;fontSize=20;" vertex="1" parent="1">
          <mxGeometry x="580" y="360" width="96" height="20" as="geometry" />
        </mxCell>
        <mxCell id="_4d6rBHp9_qb33C90rfb-8" value="&lt;font style=&quot;font-size: 20px&quot;&gt;ＧＰＵ&lt;/font&gt;" style="html=1;fillColor=#5184F3;strokeColor=none;verticalAlign=top;labelPosition=center;verticalLabelPosition=bottom;align=center;spacingTop=-6;fontSize=11;fontStyle=1;fontColor=#999999;shape=mxgraph.gcp2.hexIcon;prIcon=gpu" vertex="1" parent="1">
          <mxGeometry x="180" y="8" width="109" height="78" as="geometry" />
        </mxCell>
        <mxCell id="_4d6rBHp9_qb33C90rfb-11" value="" style="shape=doubleArrow;whiteSpace=wrap;html=1;fontSize=20;" vertex="1" parent="1">
          <mxGeometry x="280" y="32" width="160" height="20" as="geometry" />
        </mxCell>
        <mxCell id="_4d6rBHp9_qb33C90rfb-12" value="内存" style="text;html=1;strokeColor=none;fillColor=none;align=center;verticalAlign=middle;whiteSpace=wrap;rounded=0;fontSize=20;" vertex="1" parent="1">
          <mxGeometry x="474" y="2" width="68" height="12" as="geometry" />
        </mxCell>
        <mxCell id="_4d6rBHp9_qb33C90rfb-26" value="Ｉ/O桥" style="ellipse;whiteSpace=wrap;html=1;aspect=fixed;fontSize=20;" vertex="1" parent="1">
          <mxGeometry x="475.78999999999996" y="210" width="80" height="80" as="geometry" />
        </mxCell>
        <mxCell id="_4d6rBHp9_qb33C90rfb-29" value="" style="shape=doubleArrow;direction=south;whiteSpace=wrap;html=1;fontSize=20;" vertex="1" parent="1">
          <mxGeometry x="507" y="290" width="16" height="90" as="geometry" />
        </mxCell>
        <mxCell id="_4d6rBHp9_qb33C90rfb-31" value="系统总线" style="shape=doubleArrow;whiteSpace=wrap;html=1;fontSize=20;rotation=-30;" vertex="1" parent="1">
          <mxGeometry x="549.61" y="148.55" width="270" height="14.34" as="geometry" />
        </mxCell>
        <mxCell id="_4d6rBHp9_qb33C90rfb-33" value="CPU" style="text;html=1;strokeColor=none;fillColor=none;align=center;verticalAlign=middle;whiteSpace=wrap;rounded=0;fontSize=20;" vertex="1" parent="1">
          <mxGeometry x="801" y="-10" width="68" height="12" as="geometry" />
        </mxCell>
        <mxCell id="_4d6rBHp9_qb33C90rfb-43" value="" style="group" vertex="1" connectable="0" parent="1">
          <mxGeometry x="550" y="400" width="120" height="239" as="geometry" />
        </mxCell>
        <mxCell id="_4d6rBHp9_qb33C90rfb-36" value="网络适配器" style="rounded=1;whiteSpace=wrap;html=1;fontSize=20;" vertex="1" parent="_4d6rBHp9_qb33C90rfb-43">
          <mxGeometry y="70" width="120" height="60" as="geometry" />
        </mxCell>
        <mxCell id="_4d6rBHp9_qb33C90rfb-37" value="" style="shape=doubleArrow;direction=south;whiteSpace=wrap;html=1;fontSize=20;" vertex="1" parent="_4d6rBHp9_qb33C90rfb-43">
          <mxGeometry x="50" width="20" height="70" as="geometry" />
        </mxCell>
        <mxCell id="_4d6rBHp9_qb33C90rfb-40" value="网络" style="outlineConnect=0;dashed=0;verticalLabelPosition=bottom;verticalAlign=top;align=center;html=1;shape=mxgraph.aws3.internet_3;fillColor=#D2D3D3;gradientColor=none;fontSize=20;" vertex="1" parent="_4d6rBHp9_qb33C90rfb-43">
          <mxGeometry x="27" y="185" width="79.5" height="54" as="geometry" />
        </mxCell>
        <mxCell id="_4d6rBHp9_qb33C90rfb-42" value="" style="endArrow=classic;startArrow=classic;html=1;fontSize=20;entryX=0.5;entryY=1;entryDx=0;entryDy=0;" edge="1" parent="_4d6rBHp9_qb33C90rfb-43">
          <mxGeometry width="50" height="50" relative="1" as="geometry">
            <mxPoint x="60" y="185" as="sourcePoint" />
            <mxPoint x="59.5" y="130" as="targetPoint" />
          </mxGeometry>
        </mxCell>
        <mxCell id="_4d6rBHp9_qb33C90rfb-44" value="" style="group" vertex="1" connectable="0" parent="1">
          <mxGeometry x="210" y="400" width="120" height="255" as="geometry" />
        </mxCell>
        <mxCell id="_4d6rBHp9_qb33C90rfb-13" value="磁盘控制器" style="rounded=1;whiteSpace=wrap;html=1;fontSize=20;" vertex="1" parent="_4d6rBHp9_qb33C90rfb-44">
          <mxGeometry y="70" width="120" height="60" as="geometry" />
        </mxCell>
        <mxCell id="_4d6rBHp9_qb33C90rfb-14" value="" style="shape=doubleArrow;direction=south;whiteSpace=wrap;html=1;fontSize=20;" vertex="1" parent="_4d6rBHp9_qb33C90rfb-44">
          <mxGeometry x="50" width="20" height="70" as="geometry" />
        </mxCell>
        <mxCell id="_4d6rBHp9_qb33C90rfb-34" value="磁盘" style="pointerEvents=1;shadow=0;dashed=0;html=1;strokeColor=none;fillColor=#505050;labelPosition=center;verticalLabelPosition=bottom;verticalAlign=top;outlineConnect=0;align=center;shape=mxgraph.office.devices.hard_disk;fontSize=20;" vertex="1" parent="_4d6rBHp9_qb33C90rfb-44">
          <mxGeometry x="20.5" y="180" width="79" height="75" as="geometry" />
        </mxCell>
        <mxCell id="_4d6rBHp9_qb33C90rfb-41" value="" style="endArrow=classic;startArrow=classic;html=1;fontSize=20;entryX=0.5;entryY=1;entryDx=0;entryDy=0;" edge="1" parent="_4d6rBHp9_qb33C90rfb-44" source="_4d6rBHp9_qb33C90rfb-34" target="_4d6rBHp9_qb33C90rfb-13">
          <mxGeometry width="50" height="50" relative="1" as="geometry">
            <mxPoint x="40" y="180" as="sourcePoint" />
            <mxPoint x="90" y="130" as="targetPoint" />
          </mxGeometry>
        </mxCell>
        <mxCell id="_4d6rBHp9_qb33C90rfb-45" value="" style="group" vertex="1" connectable="0" parent="1">
          <mxGeometry x="40" y="400" width="120" height="255" as="geometry" />
        </mxCell>
        <mxCell id="_4d6rBHp9_qb33C90rfb-46" value="USB控制器" style="rounded=1;whiteSpace=wrap;html=1;fontSize=20;" vertex="1" parent="_4d6rBHp9_qb33C90rfb-45">
          <mxGeometry y="70" width="120" height="60" as="geometry" />
        </mxCell>
        <mxCell id="_4d6rBHp9_qb33C90rfb-47" value="" style="shape=doubleArrow;direction=south;whiteSpace=wrap;html=1;fontSize=20;" vertex="1" parent="_4d6rBHp9_qb33C90rfb-45">
          <mxGeometry x="50" width="20" height="70" as="geometry" />
        </mxCell>
        <mxCell id="_4d6rBHp9_qb33C90rfb-51" value="" style="pointerEvents=1;shadow=0;dashed=0;html=1;strokeColor=none;fillColor=#434445;aspect=fixed;labelPosition=center;verticalLabelPosition=bottom;verticalAlign=top;align=center;outlineConnect=0;shape=mxgraph.vvd.keyboard;fontSize=20;" vertex="1" parent="_4d6rBHp9_qb33C90rfb-45">
          <mxGeometry x="60" y="199.5" width="50" height="35.5" as="geometry" />
        </mxCell>
        <mxCell id="_4d6rBHp9_qb33C90rfb-50" value="" style="pointerEvents=1;shadow=0;dashed=0;html=1;strokeColor=none;fillColor=#434445;aspect=fixed;labelPosition=center;verticalLabelPosition=bottom;verticalAlign=top;align=center;outlineConnect=0;shape=mxgraph.vvd.mouse;fontSize=20;" vertex="1" parent="_4d6rBHp9_qb33C90rfb-45">
          <mxGeometry x="10" y="185" width="24.5" height="50" as="geometry" />
        </mxCell>
        <mxCell id="_4d6rBHp9_qb33C90rfb-98" value="" style="endArrow=classic;html=1;fontSize=20;" edge="1" parent="_4d6rBHp9_qb33C90rfb-45">
          <mxGeometry width="50" height="50" relative="1" as="geometry">
            <mxPoint x="80" y="190" as="sourcePoint" />
            <mxPoint x="80" y="140" as="targetPoint" />
            <Array as="points">
              <mxPoint x="80" y="182" />
            </Array>
          </mxGeometry>
        </mxCell>
        <mxCell id="_4d6rBHp9_qb33C90rfb-97" value="" style="endArrow=classic;html=1;fontSize=20;" edge="1" parent="1" source="_4d6rBHp9_qb33C90rfb-50">
          <mxGeometry width="50" height="50" relative="1" as="geometry">
            <mxPoint x="50" y="610" as="sourcePoint" />
            <mxPoint x="62" y="540" as="targetPoint" />
          </mxGeometry>
        </mxCell>
        <mxCell id="_4d6rBHp9_qb33C90rfb-103" value="" style="group" vertex="1" connectable="0" parent="1">
          <mxGeometry x="380" y="400" width="120" height="270" as="geometry" />
        </mxCell>
        <mxCell id="_4d6rBHp9_qb33C90rfb-104" value="图形适配器" style="rounded=1;whiteSpace=wrap;html=1;fontSize=20;" vertex="1" parent="_4d6rBHp9_qb33C90rfb-103">
          <mxGeometry y="70" width="120" height="60" as="geometry" />
        </mxCell>
        <mxCell id="_4d6rBHp9_qb33C90rfb-105" value="" style="shape=doubleArrow;direction=south;whiteSpace=wrap;html=1;fontSize=20;" vertex="1" parent="_4d6rBHp9_qb33C90rfb-103">
          <mxGeometry x="50" width="20" height="70" as="geometry" />
        </mxCell>
        <mxCell id="_4d6rBHp9_qb33C90rfb-107" value="" style="endArrow=classic;startArrow=classic;html=1;fontSize=20;entryX=0.5;entryY=1;entryDx=0;entryDy=0;" edge="1" parent="_4d6rBHp9_qb33C90rfb-103" target="_4d6rBHp9_qb33C90rfb-104">
          <mxGeometry width="50" height="50" relative="1" as="geometry">
            <mxPoint x="60" y="180" as="sourcePoint" />
            <mxPoint x="90" y="130" as="targetPoint" />
          </mxGeometry>
        </mxCell>
        <mxCell id="_4d6rBHp9_qb33C90rfb-109" value="显示器" style="html=1;verticalLabelPosition=bottom;align=center;labelBackgroundColor=#ffffff;verticalAlign=top;strokeWidth=2;strokeColor=#0080F0;shadow=0;dashed=0;shape=mxgraph.ios7.icons.monitor;fontSize=20;" vertex="1" parent="_4d6rBHp9_qb33C90rfb-103">
          <mxGeometry x="10" y="190" width="90" height="65" as="geometry" />
        </mxCell>
        <mxCell id="_4d6rBHp9_qb33C90rfb-110" value="内存总线" style="shape=doubleArrow;whiteSpace=wrap;html=1;fontSize=20;rotation=-90;" vertex="1" parent="1">
          <mxGeometry x="456.19" y="135.39" width="119.21" height="14.34" as="geometry" />
        </mxCell>
        <mxCell id="_4d6rBHp9_qb33C90rfb-118" value="数据总线" style="shape=doubleArrow;whiteSpace=wrap;html=1;fontSize=20;" vertex="1" parent="1">
          <mxGeometry x="604.61" y="33" width="175.39" height="18" as="geometry" />
        </mxCell>
        <mxCell id="_4d6rBHp9_qb33C90rfb-120" value="" style="rounded=0;whiteSpace=wrap;html=1;fontSize=20;" vertex="1" parent="1">
          <mxGeometry x="80" y="900" width="910" height="50" as="geometry" />
        </mxCell>
      </root>
    </mxGraphModel>
  </diagram>
</mxfile>
